<?xml version="1.0" standalone="no"?>
<!DOCTYPE svg PUBLIC "-//W3C//DTD SVG 20010904//EN"
 "http://www.w3.org/TR/2001/REC-SVG-20010904/DTD/svg10.dtd">
<svg version="1.0" xmlns="http://www.w3.org/2000/svg"
 width="484.000000pt" height="484.000000pt" viewBox="0 0 484.000000 484.000000"
 preserveAspectRatio="xMidYMid meet">
<metadata>
Created by potrace 1.11, written by Peter Selinger 2001-2013
</metadata>
<g transform="translate(0.000000,484.000000) scale(0.100000,-0.100000)"
fill="#000000" stroke="none">
<path d="M278 3284 c-32 -10 -64 -31 -97 -64 -83 -83 -81 -62 -81 -765 0 -703
-2 -682 81 -765 88 -88 -120 -81 2269 -78 l2115 3 41 22 c56 30 103 79 128
133 21 44 21 57 21 690 l0 645 -22 41 c-30 56 -79 103 -133 128 l-45 21 -2115
2 c-1828 1 -2121 0 -2162 -13z"/>
</g>
</svg>
